# xmcd
#
# Track frame offsets:
#   150
#   18613
#   32844
#   46556
#   63120
#   80338
#   98491
#   114706
#   130089
#   151418
#   164144
#   179127
#
# Disc length: 2662 seconds
#
# Revision: 0
# Processed by: cddbd v1.5.2PL0 Copyright (c) Steve Scherf et al.
# Submitted via: uFREEDB ActiveX Control 1.5
#
DISCID=970a640c
DTITLE=Zé Mineiro e Paulistano - Reliquia Sertaneja
DYEAR=1900
DGENRE=Country
TTITLE0=Reliquia Sertaneja
TTITLE1=Eu Vou, Eu Vou
TTITLE2=Mulher da Minha Vida
TTITLE3=Caixinha De Recado
TTITLE4=Ela Dá
TTITLE5=Chuva de Verão
TTITLE6=Xote Coração
TTITLE7=Vale a Pena Sonhar
TTITLE8=Sonhando Acordado
TTITLE9=Balaio de Gato
TTITLE10=Estrada de Ouro Fino
TTITLE11=Transporte Antigo
EXTD=
EXTT0=
EXTT1=
EXTT2=
EXTT3=
EXTT4=
EXTT5=
EXTT6=
EXTT7=
EXTT8=
EXTT9=
EXTT10=
EXTT11=
PLAYORDER=
